PathFileType	4	(x/y/z)	S10_P20_T02
DataRate	CameraRate	NumFrames	NumMarkers	Units	OrigDataRate	OrigDataStartFrame	OrigNumFrames
240	240	9	51	mm	240	159	422
Frame#	Time	Sternum			R.Acromium			L.Acromium			Top.Head			R.ASIS			L.ASIS			R.PSIS			L.PSIS			R.Great.Tro			L.Great.Tro			R.Iliac.Crest			L.Iliac.Crest			V.Sacral			R.Thigh.Upper.Post			R.Thigh.Lower.Ant			R.Thigh.Lower.Post			R.Thigh.Upper.Ant			R.Knee.Lat			R.Knee.Med			R.Shank.Upper.Post			R.Shank.Lower.Ant			R.Shank.Lower.Post			R.Shank.Upper.Ant			R.Ankle.Lat			R.Ankle.Med			R.Heel.Upper			R.Heel.Med			R.Heel.Lat			R.Toe.Lat			R.Toe.Med			R.Toe.Tip			L.Thigh.Upper.Post			L.Thigh.Lower.Ant			L.Thigh.Lower.Post			L.Thigh.Upper.Ant			L.Knee.Lat			L.Knee.Med			L.Shank.Upper.Post			L.Shank.Lower.Ant			L.Shank.Lower.Post			L.Shank.Upper.Ant			L.Ankle.Lat			L.Ankle.Med			L.Heel.Upper			L.Heel.Med			L.Heel.Lat			L.Toe.Lat			L.Toe.Med			L.Toe.Tip			Cervical.Spine			Back			
		X1	Y1	Z1	X2	Y2	Z2	X3	Y3	Z3	X4	Y4	Z4	X5	Y5	Z5	X6	Y6	Z6	X7	Y7	Z7	X8	Y8	Z8	X9	Y9	Z9	X10	Y10	Z10	X11	Y11	Z11	X12	Y12	Z12	X13	Y13	Z13	X14	Y14	Z14	X15	Y15	Z15	X16	Y16	Z16	X17	Y17	Z17	X18	Y18	Z18	X19	Y19	Z19	X20	Y20	Z20	X21	Y21	Z21	X22	Y22	Z22	X23	Y23	Z23	X24	Y24	Z24	X25	Y25	Z25	X26	Y26	Z26	X27	Y27	Z27	X28	Y28	Z28	X29	Y29	Z29	X30	Y30	Z30	X31	Y31	Z31	X32	Y32	Z32	X33	Y33	Z33	X34	Y34	Z34	X35	Y35	Z35	X36	Y36	Z36	X37	Y37	Z37	X38	Y38	Z38	X39	Y39	Z39	X40	Y40	Z40	X41	Y41	Z41	X42	Y42	Z42	X43	Y43	Z43	X44	Y44	Z44	X45	Y45	Z45	X46	Y46	Z46	X47	Y47	Z47	X48	Y48	Z48	X49	Y49	Z49	X50	Y50	Z50	X51	Y51	Z51	

159	0.65833	-414.15	1267.9	382.84	-560.55	1413.7	529.81	-533.51	1455.6	233.51	-586.36	1737.9	409.71	-457.51	1007.1	477.56	-453.61	1008.2	246.77	-658.36	1008.1	385.16	-650.61	1011.8	304.89	-518.07	930.89	552.97	-513.2	931.1	191.34	-560.88	1079.7	519.19	-521.35	1078.7	218.18	-674.4	974.24	349.7	-447.41	725.7	541.19	-378.48	663.77	496.84	-433.97	637.57	528.99	-391.42	754.34	503.88	-410.29	514.65	483.25	-427.85	522.61	358.95	-482.05	289.71	490.68	-422.4	224.68	466.75	-484.48	215.57	483.95	-413.57	301.26	472.38	-477.14	110.2	460.05	-471.71	121.4	381.87	-545.96	65.261	419.34	-536.74	36.606	392.89	-538.27	40.978	454.12	-364.07	40.009	492.03	-338.83	43.372	380.88	-279.61	59.998	421.73	-559.54	656.99	200.53	-483.34	576.94	204.94	-554.47	562.17	216.91	-481.59	666.72	188.09	-532.58	485.79	212.32	-487.8	461.66	336.18	-716.99	393.37	224.14	-740.94	284.85	217.26	-775.58	339.58	229.15	-684.31	337.98	212.43	-848.17	235.58	229.8	-823.19	221.62	314.15	-871.43	280.7	282.62	-896.06	264.38	319.29	-905.38	274.98	255.45	-906.62	101.2	205.93	-876.3	69.75	307.9	-861.21	31.738	255.75	-624.45	1480.7	386.02	-699.58	1271.6	353.3
160	0.6625	-408.73	1267.8	382.87	-554.59	1413.8	530.17	-528.36	1455.5	233.67	-581.05	1738	410.23	-451.93	1007.3	478.04	-448.63	1008.2	247.19	-652.99	1008.1	386.06	-645.53	1011.7	305.77	-512.45	931.07	553.66	-508.05	930.95	192.04	-555.2	1079.8	519.88	-516.78	1078.6	218.64	-669.16	974.16	350.72	-442.99	725.54	541.7	-374.32	663.27	497.53	-430.02	637.35	529.48	-386.76	753.91	504.63	-407.05	514.23	483.66	-424.33	522.29	359.32	-480.28	289.76	490.8	-421.11	224.3	466.84	-483.28	215.64	484	-411.7	300.8	472.53	-476.71	110.33	459.97	-471.23	121.57	381.81	-545.88	65.368	419.31	-536.68	36.703	392.88	-538.2	41.12	454.09	-364.02	40.023	492.05	-338.71	43.207	380.83	-279.46	59.635	421.73	-551.4	656.54	201.07	-474.43	577.21	205.22	-545.39	561.76	217.44	-473.59	667.04	188.42	-522.58	485.97	212.49	-477.79	461.84	336.56	-706.95	394.44	224.33	-731.48	286.03	217.29	-766	340.95	229.24	-674.59	338.88	212.53	-839.1	237.41	229.84	-813.93	223.09	314.37	-861.2	282.83	282.88	-885.94	266.96	319.77	-895.5	277.65	255.93	-899.83	103.41	206.27	-869.21	71.413	307.92	-855.58	31.73	255.33	-618.84	1480.9	386.55	-694.23	1271.8	354.22
161	0.66667	-403.33	1267.7	382.86	-548.61	1414	530.51	-523.25	1455.3	233.81	-575.75	1738	410.74	-446.37	1007.6	478.49	-443.7	1008.3	247.59	-647.64	1008.1	386.98	-640.48	1011.6	306.66	-506.83	931.27	554.33	-502.97	930.9	192.72	-549.52	1080	520.55	-512.3	1078.5	219.09	-663.94	974.14	351.75	-438.69	725.38	542.19	-370.28	662.75	498.22	-426.2	637.14	529.96	-382.2	753.46	505.35	-403.96	513.82	484.06	-421.12	521.96	359.69	-478.62	289.81	490.9	-419.89	223.94	466.94	-482.14	215.72	484.04	-409.93	300.36	472.69	-476.3	110.47	459.91	-470.79	121.76	381.76	-545.8	65.479	419.28	-536.62	36.801	392.86	-538.14	41.265	454.07	-363.98	40.031	492.08	-338.6	43.055	380.78	-279.31	59.295	421.73	-543.25	656.19	201.61	-465.53	577.59	205.53	-536.3	561.48	217.99	-465.59	667.44	188.76	-512.56	486.25	212.69	-467.86	462.17	336.99	-696.88	395.47	224.52	-721.9	287.16	217.39	-756.32	342.25	229.36	-664.8	339.76	212.67	-829.91	239.12	229.92	-804.56	224.48	314.6	-851.04	284.77	283.18	-875.84	269.26	320.27	-885.64	280.04	256.41	-892.51	105.45	206.58	-861.61	72.982	307.92	-849.24	31.829	254.93	-613.25	1481.2	387.08	-688.91	1272.1	355.15
162	0.67083	-397.95	1267.6	382.81	-542.63	1414.2	530.83	-518.17	1455.3	233.93	-570.45	1738.2	411.23	-440.81	1007.8	478.89	-438.79	1008.5	247.95	-642.32	1008.2	387.9	-635.45	1011.6	307.56	-501.23	931.49	554.98	-497.93	930.93	193.38	-543.85	1080.3	521.21	-507.9	1078.5	219.53	-658.74	974.19	352.78	-434.49	725.24	542.65	-366.37	662.24	498.9	-422.52	636.93	530.41	-377.72	753	506.06	-401.01	513.42	484.45	-418.21	521.63	360.05	-477.05	289.88	491	-418.74	223.62	467.06	-481.08	215.81	484.08	-408.26	299.95	472.86	-475.9	110.6	459.86	-470.36	121.95	381.73	-545.71	65.595	419.25	-536.56	36.899	392.84	-538.07	41.413	454.05	-363.95	40.032	492.11	-338.49	42.914	380.73	-279.17	58.973	421.74	-535.09	655.94	202.16	-456.62	578.08	205.86	-527.2	561.3	218.55	-457.59	667.93	189.1	-502.55	486.64	212.92	-458	462.67	337.47	-686.79	396.46	224.71	-712.23	288.23	217.54	-746.56	343.47	229.5	-654.95	340.62	212.85	-820.59	240.71	230.06	-795.07	225.79	314.86	-840.97	286.5	283.53	-865.81	271.27	320.8	-875.82	282.14	256.91	-884.62	107.3	206.85	-853.46	74.435	307.9	-842.14	32.026	254.55	-607.67	1481.5	387.6	-683.6	1272.4	356.09
163	0.675	-392.59	1267.6	382.71	-536.63	1414.5	531.13	-513.14	1455.2	234.04	-565.14	1738.3	411.7	-435.26	1008.2	479.26	-433.9	1008.7	248.29	-637.01	1008.4	388.84	-630.44	1011.7	308.47	-495.65	931.75	555.59	-492.95	931.05	194.01	-538.17	1080.6	521.85	-503.59	1078.6	219.96	-653.57	974.32	353.83	-430.39	725.12	543.1	-362.57	661.72	499.58	-418.96	636.75	530.84	-373.33	752.54	506.75	-398.18	513.04	484.83	-415.59	521.31	360.41	-475.57	289.95	491.1	-417.66	223.32	467.19	-480.08	215.92	484.12	-406.69	299.58	473.03	-475.5	110.74	459.82	-469.95	122.14	381.71	-545.62	65.719	419.21	-536.5	36.998	392.83	-538	41.565	454.03	-363.92	40.026	492.14	-338.38	42.782	380.69	-279.03	58.668	421.74	-526.93	655.79	202.7	-447.73	578.68	206.21	-518.11	561.24	219.13	-449.6	668.52	189.45	-492.55	487.14	213.18	-448.21	463.32	338	-676.69	397.41	224.9	-702.47	289.25	217.75	-736.73	344.62	229.67	-645.05	341.47	213.07	-811.16	242.16	230.25	-785.48	227.02	315.14	-831.02	288.04	283.92	-855.85	272.98	321.34	-866.05	283.92	257.42	-876.16	108.95	207.08	-844.75	75.752	307.87	-834.24	32.306	254.2	-602.11	1481.9	388.11	-678.32	1272.8	357.05
164	0.67917	-387.26	1267.7	382.58	-530.63	1414.8	531.42	-508.13	1455.3	234.13	-559.83	1738.5	412.16	-429.73	1008.5	479.59	-429.04	1009	248.6	-631.72	1008.6	389.78	-625.45	1011.9	309.4	-490.08	932.03	556.18	-488.03	931.26	194.61	-532.49	1080.9	522.48	-499.34	1078.8	220.37	-648.43	974.52	354.88	-426.39	725.02	543.52	-358.87	661.21	500.25	-415.52	636.58	531.26	-369.02	752.07	507.42	-395.47	512.68	485.2	-413.22	521	360.75	-474.18	290.04	491.19	-416.64	223.06	467.33	-479.13	216.04	484.17	-405.2	299.24	473.22	-475.12	110.88	459.8	-469.56	122.34	381.7	-545.53	65.849	419.16	-536.44	37.099	392.81	-537.93	41.721	454	-363.89	40.014	492.17	-338.28	42.659	380.65	-278.9	58.374	421.75	-518.77	655.74	203.24	-438.86	579.38	206.57	-509.02	561.29	219.72	-441.63	669.2	189.81	-482.56	487.74	213.46	-438.47	464.1	338.56	-666.59	398.33	225.1	-692.64	290.21	218.02	-726.82	345.7	229.88	-635.1	342.3	213.34	-801.61	243.47	230.5	-775.79	228.17	315.44	-821.19	289.36	284.34	-845.98	274.4	321.89	-856.34	285.39	257.92	-867.1	110.37	207.28	-835.47	76.918	307.82	-825.52	32.652	253.88	-596.56	1482.3	388.62	-673.06	1273.2	358.02
165	0.68333	-381.95	1267.8	382.4	-524.62	1415.2	531.7	-503.17	1455.4	234.21	-554.52	1738.8	412.6	-424.2	1008.9	479.89	-424.19	1009.4	248.88	-626.44	1008.9	390.74	-620.47	1012.1	310.33	-484.54	932.35	556.73	-483.14	931.55	195.19	-526.81	1081.3	523.09	-495.17	1079.1	220.78	-643.3	974.79	355.94	-422.49	724.93	543.93	-355.28	660.71	500.91	-412.18	636.43	531.66	-364.79	751.61	508.08	-392.86	512.34	485.55	-411.09	520.72	361.09	-472.86	290.15	491.27	-415.67	222.83	467.48	-478.24	216.18	484.21	-403.8	298.95	473.41	-474.74	111.04	459.79	-469.19	122.55	381.7	-545.44	65.986	419.11	-536.37	37.202	392.78	-537.86	41.883	453.98	-363.86	39.996	492.2	-338.18	42.542	380.62	-278.77	58.091	421.77	-510.62	655.8	203.78	-430	580.19	206.95	-499.95	561.44	220.31	-433.68	669.97	190.17	-472.6	488.44	213.77	-428.78	465.02	339.14	-656.51	399.2	225.31	-682.73	291.11	218.35	-716.86	346.69	230.13	-625.13	343.12	213.65	-791.95	244.64	230.8	-766.02	229.24	315.76	-811.5	290.47	284.8	-836.21	275.5	322.45	-846.7	286.52	258.41	-857.45	111.55	207.43	-825.62	77.922	307.78	-815.97	33.046	253.6	-591.03	1482.7	389.12	-667.83	1273.7	359.02
166	0.6875	-376.66	1268	382.18	-518.6	1415.7	531.96	-498.25	1455.5	234.27	-549.2	1739.1	413.02	-418.69	1009.3	480.15	-419.36	1009.9	249.15	-621.18	1009.2	391.69	-615.51	1012.4	311.27	-479.03	932.69	557.26	-478.3	931.94	195.74	-521.12	1081.8	523.68	-491.05	1079.4	221.19	-638.19	975.14	356.99	-418.68	724.88	544.31	-351.78	660.22	501.56	-408.94	636.3	532.03	-360.63	751.16	508.72	-390.35	512.02	485.89	-409.16	520.47	361.42	-471.62	290.27	491.35	-414.76	222.63	467.64	-477.41	216.34	484.25	-402.47	298.69	473.61	-474.37	111.2	459.79	-468.83	122.78	381.7	-545.34	66.13	419.06	-536.3	37.308	392.75	-537.78	42.05	453.95	-363.83	39.971	492.23	-338.08	42.431	380.6	-278.65	57.816	421.78	-502.48	655.96	204.3	-421.17	581.11	207.33	-490.9	561.71	220.89	-425.75	670.84	190.53	-462.69	489.24	214.1	-419.14	466.07	339.75	-646.44	400.05	225.53	-672.77	291.97	218.74	-706.84	347.61	230.42	-615.12	343.93	214	-782.18	245.66	231.16	-756.17	230.23	316.11	-801.94	291.37	285.28	-826.56	276.3	323.01	-837.14	287.33	258.89	-847.19	112.48	207.54	-815.21	78.757	307.73	-805.58	33.472	253.36	-585.52	1483.2	389.61	-662.62	1274.2	360.02
167	0.69167	-371.39	1268.3	381.93	-512.59	1416.2	532.2	-493.37	1455.7	234.32	-543.86	1739.5	413.42	-413.19	1009.8	480.39	-414.55	1010.4	249.4	-615.94	1009.7	392.65	-610.56	1012.8	312.21	-473.55	933.06	557.76	-473.49	932.41	196.26	-515.44	1082.3	524.26	-486.99	1079.9	221.59	-633.1	975.56	358.05	-414.96	724.84	544.68	-348.36	659.76	502.21	-405.79	636.2	532.39	-356.54	750.72	509.33	-387.93	511.73	486.22	-407.38	520.25	361.75	-470.45	290.41	491.43	-413.89	222.48	467.82	-476.62	216.52	484.28	-401.22	298.47	473.82	-474	111.37	459.8	-468.49	123.01	381.72	-545.23	66.282	419	-536.23	37.419	392.72	-537.71	42.224	453.92	-363.8	39.942	492.27	-337.99	42.326	380.58	-278.52	57.547	421.8	-494.35	656.21	204.81	-412.37	582.13	207.73	-481.87	562.08	221.45	-417.85	671.79	190.9	-452.82	490.12	214.45	-409.53	467.23	340.35	-636.41	400.85	225.78	-662.75	292.77	219.19	-696.78	348.46	230.75	-605.09	344.73	214.4	-772.3	246.52	231.57	-746.23	231.12	316.47	-792.52	292.03	285.78	-817.01	276.78	323.57	-827.66	287.8	259.34	-836.34	113.15	207.62	-804.23	79.42	307.69	-794.38	33.913	253.17	-580.03	1483.8	390.11	-657.43	1274.7	361.05
